<?xml version="1.0" encoding="UTF-8"?>
<!DOCTYPE svg PUBLIC "-//W3C//DTD SVG 1.1//EN" "http://www.w3.org/Graphics/SVG/1.1/DTD/svg11.dtd">
<svg version="1.1" xmlns="http://www.w3.org/2000/svg" xmlns:xlink="http://www.w3.org/1999/xlink" x="0" y="0" width="497" height="536" viewBox="0, 0, 497, 536">
  <g id="Layer_1">
    <path d="M257.038,161.38 C255.776,160.229 254.343,159.337 252.764,158.835 C249.597,157.772 246.059,158.149 242.539,159.254 C245.317,156.793 249.567,155.766 253.371,157.009 C255.252,157.64 256.95,158.826 258.141,160.36 C259.35,161.881 260.101,163.677 260.413,165.508 C259.353,163.97 258.297,162.544 257.038,161.38 M263.453,128.736 C264.188,122.499 265.035,116.274 266.169,110.101 C266.315,109.328 266.464,108.557 266.621,107.786 C268.819,110.928 271.036,114.058 273.296,117.159 C276.36,121.34 279.495,125.472 282.759,129.502 C280.597,131.645 278.493,133.846 276.427,136.078 C272.468,140.369 268.648,144.785 264.92,149.275 C263.629,150.832 262.365,152.405 261.098,153.977 C261.721,145.553 262.485,137.127 263.453,128.736 M262.182,94.098 C264.009,94.959 265.833,95.825 267.671,96.665 C268.125,96.87 268.584,97.063 269.039,97.269 C268.532,98.408 268.064,99.565 267.663,100.744 C267.465,101.308 267.281,101.877 267.097,102.445 C265.438,99.672 263.799,96.891 262.182,94.098 M243.866,67.858 C242.288,68.36 240.854,69.252 239.593,70.403 C238.333,71.566 237.278,72.991 236.216,74.531 C236.53,72.7 237.282,70.905 238.49,69.383 C239.68,67.848 241.378,66.663 243.261,66.031 C247.064,64.789 251.314,65.814 254.091,68.276 C250.571,67.171 247.034,66.794 243.866,67.858 M283.909,130.907 C284.244,131.314 284.572,131.726 284.911,132.131 C286.951,134.545 289.044,136.919 291.285,139.152 C292.396,140.276 293.569,141.344 294.805,142.333 C295.999,143.228 297.228,144.165 298.676,144.592 C296.779,144.978 294.872,145.335 292.995,145.817 C288.284,146.918 283.629,148.278 279.025,149.837 C274.439,151.444 269.908,153.256 265.498,155.39 C265.274,155.5 265.053,155.611 264.833,155.722 C269.13,149.576 273.588,143.521 278.266,137.662 C280.105,135.376 281.977,133.114 283.909,130.907 M188.09,176.915 C188.288,176.245 188.501,175.588 188.701,174.921 C188.869,174.97 189.036,175.022 189.204,175.071 C188.833,175.685 188.478,176.308 188.09,176.915 M181.209,182.704 C182.443,177.107 183.884,171.616 185.379,166.147 L189.919,149.795 C190.721,147.086 191.46,144.362 192.206,141.642 L193.349,137.566 C193.695,136.2 194.059,134.838 194.446,133.479 C195.881,128.018 197.289,122.564 198.564,116.975 C198.888,122.711 198.285,128.458 197.384,134.108 C196.509,139.776 195.118,145.327 193.625,150.839 C192.053,156.33 190.28,161.754 188.224,167.078 C186.181,172.402 183.938,177.658 181.209,182.704 M174.327,188.496 C175.234,182.75 176.417,177.104 177.685,171.484 C178.93,165.86 180.325,160.283 181.68,154.702 L190.261,121.273 C190.468,127.101 189.794,132.906 188.911,138.629 C188.515,141.507 187.89,144.332 187.363,147.182 C186.741,150.006 186.098,152.829 185.414,155.637 C183.975,161.237 182.412,166.802 180.569,172.284 C178.752,177.772 176.761,183.208 174.327,188.496 M167.447,194.285 C168.062,188.41 169.003,182.622 170.053,176.86 C171.08,171.095 172.29,165.373 173.506,159.657 C174.799,153.955 176.078,148.257 177.513,142.589 C178.916,136.909 180.405,131.267 181.958,125.571 C181.993,131.489 181.316,137.36 180.462,143.169 C179.622,148.987 178.497,154.748 177.266,160.481 C175.969,166.2 174.597,171.9 172.97,177.538 C171.367,183.18 169.61,188.787 167.447,194.285 M160.566,200.076 C160.875,194.072 161.554,188.149 162.365,182.25 C163.154,176.348 164.162,170.488 165.214,164.637 C166.337,158.797 167.507,152.966 168.9,147.171 C170.269,141.372 171.771,135.593 173.654,129.869 C173.354,135.848 172.677,141.771 171.863,147.672 C171.073,153.578 170.062,159.448 169.003,165.309 C167.875,171.159 166.702,176.999 165.308,182.798 C163.939,188.6 162.438,194.378 160.566,200.076 M148.039,188.1 C147.583,192.981 146.892,197.848 145.639,202.623 C145.305,197.706 145.158,192.847 145.048,187.998 L144.708,173.497 C144.597,168.675 144.419,163.863 144.195,159.045 C143.913,154.23 143.563,149.435 143.104,144.52 C145.117,149.029 146.332,153.861 147.181,158.713 C148.028,163.575 148.375,168.492 148.555,173.399 C148.642,178.31 148.507,183.219 148.039,188.1 M139.04,195.549 C138.89,200.497 138.565,205.451 137.788,210.39 C136.972,205.46 136.462,200.545 136.047,195.63 C135.605,190.717 135.337,185.804 135.064,180.89 C134.871,175.973 134.64,171.063 134.592,166.134 C134.513,161.206 134.474,156.276 134.742,151.282 C136.067,156.1 136.945,160.998 137.587,165.912 C138.249,170.825 138.646,175.764 138.908,180.705 C139.106,185.65 139.211,190.598 139.04,195.549 M130.66,211.795 C130.574,217.64 130.325,223.488 129.646,229.336 C128.732,223.523 128.147,217.711 127.668,211.897 C127.166,206.085 126.84,200.271 126.515,194.458 C126.266,188.643 125.999,182.832 125.864,177.013 C125.697,171.191 125.618,165.38 125.526,159.501 C127.206,165.154 128.129,170.978 128.861,176.784 C129.608,182.597 130.042,188.432 130.358,194.268 C130.608,200.107 130.771,205.948 130.66,211.795 M206.868,112.676 C207.276,118.325 206.775,124.019 205.878,129.61 C204.958,135.204 203.527,140.685 201.9,146.095 C200.175,151.473 198.224,156.772 195.935,161.928 C193.959,166.399 191.781,170.787 189.252,174.99 C189.073,174.954 188.894,174.917 188.714,174.88 C190.135,170.161 191.626,165.5 193.138,160.86 C194.832,155.541 196.601,150.265 198.225,144.949 C199.889,139.646 201.448,134.321 202.943,128.97 C204.365,123.598 205.673,118.212 206.868,112.676 M215.172,108.378 C215.628,113.947 215.284,119.598 214.367,125.132 C213.423,130.661 212.008,136.106 210.216,141.409 C208.357,146.689 206.236,151.871 203.701,156.849 C201.181,161.829 198.37,166.674 194.972,171.124 C198.984,160.715 203.052,150.544 206.574,140.167 C208.389,135 209.918,129.756 211.43,124.491 C212.869,119.202 214.026,113.862 215.172,108.378 M101.628,245.044 C100.627,238.866 99.929,232.648 99.387,226.412 C98.936,220.169 98.615,213.909 98.698,207.638 C98.78,201.37 99.145,195.082 100.205,188.882 L103.223,226.104 C104.177,238.498 105.217,250.878 105.486,263.433 C103.797,257.375 102.612,251.223 101.628,245.044 M96.272,255.541 C95.03,249.883 94.101,244.161 93.37,238.41 C92.731,232.649 92.239,226.86 92.217,221.045 C92.197,215.236 92.506,209.393 93.617,203.676 C94.108,209.476 94.641,215.172 95.218,220.876 C95.846,226.572 96.492,232.262 97.191,237.951 L99.226,255.05 C99.891,260.766 100.512,266.491 100.93,272.294 C98.952,266.817 97.502,261.199 96.272,255.541 M90.948,266.08 C89.468,260.95 88.302,255.733 87.384,250.465 C86.554,245.183 85.876,239.861 85.75,234.489 C85.618,229.13 85.863,223.713 87.03,218.469 C87.466,223.818 88.061,229.027 88.745,234.242 C89.157,236.843 89.447,239.449 89.914,242.04 C90.281,244.639 90.733,247.233 91.179,249.824 C92.006,255.021 92.997,260.198 93.865,265.412 C94.775,270.619 95.657,275.843 96.373,281.155 C94.124,276.28 92.42,271.209 90.948,266.08 M85.67,276.665 C83.958,272.074 82.553,267.37 81.446,262.583 C80.419,257.779 79.535,252.923 79.302,247.98 C79.047,243.059 79.214,238.044 80.442,233.263 C80.816,238.175 81.491,242.905 82.288,247.637 C82.522,248.815 82.743,249.99 82.931,251.172 L83.663,254.694 C84.123,257.045 84.642,259.392 85.198,261.727 C86.207,266.423 87.429,271.083 88.533,275.79 C89.682,280.487 90.815,285.2 91.816,290.016 C89.325,285.764 87.377,281.255 85.67,276.665 M80.462,287.3 C78.519,283.263 76.903,279.074 75.581,274.774 C74.34,270.454 73.252,266.06 72.887,261.529 C72.484,257.033 72.553,252.388 73.854,248.056 C74.156,252.551 74.93,256.811 75.855,261.06 C76.124,262.116 76.359,263.172 76.597,264.232 L77.448,267.382 C78.023,269.48 78.583,271.585 79.266,273.659 C80.473,277.852 81.898,281.994 83.24,286.186 C84.621,290.366 85.993,294.564 87.261,298.878 C84.563,295.266 82.395,291.334 80.462,287.3 M75.353,297.974 C73.193,294.513 71.379,290.843 69.832,287.044 C69.065,285.144 68.436,283.177 67.815,281.218 C67.328,279.208 66.754,277.226 66.522,275.151 C65.942,271.071 65.873,266.749 67.267,262.85 C67.478,266.95 68.387,270.745 69.459,274.515 C70.554,278.269 71.914,281.964 73.405,285.614 C76.282,292.978 79.706,300.137 82.704,307.739 C79.854,304.778 77.489,301.442 75.353,297.974 M261.805,162.049 C263.568,160.841 265.397,159.685 267.219,158.598 C271.294,156.184 275.555,154.047 279.911,152.096 C284.288,150.192 288.758,148.465 293.323,146.986 C295.59,146.194 297.916,145.597 300.216,144.892 C302.534,144.26 304.875,143.701 307.209,143.101 C304.836,143.501 302.452,143.864 300.079,144.3 C299.621,144.4 299.161,144.493 298.702,144.587 C297.282,144.072 296.126,143.063 295.001,142.102 C293.843,141.046 292.755,139.919 291.726,138.735 C289.653,136.384 287.731,133.9 285.865,131.38 C285.506,130.893 285.163,130.397 284.808,129.906 C286.402,128.115 288.028,126.354 289.718,124.655 C291.752,122.608 293.887,120.656 296.194,118.927 C298.489,117.243 301.023,115.585 303.968,115.456 C301.011,115.375 298.285,116.885 295.848,118.427 C293.388,120.018 291.089,121.843 288.889,123.768 C287.144,125.293 285.458,126.88 283.798,128.496 C280.855,124.337 278.042,120.087 275.3,115.79 C272.683,111.669 270.133,107.5 267.618,103.311 C267.815,102.514 268.02,101.718 268.241,100.927 C268.562,99.739 268.95,98.571 269.375,97.417 C274.133,99.556 278.924,101.618 283.779,103.529 C289.214,105.657 294.719,107.635 300.361,109.181 C303.179,109.953 306.043,110.595 308.951,110.955 C311.816,111.282 314.927,111.453 317.553,110.093 C314.847,111.258 311.844,110.87 309.043,110.355 C306.214,109.803 303.443,108.976 300.719,108.021 C295.267,106.113 289.968,103.78 284.744,101.302 C280.045,99.054 275.402,96.67 270.805,94.205 C271.163,93.569 271.574,92.97 272.109,92.46 C271.537,92.939 271.083,93.519 270.678,94.138 C268.702,93.077 266.741,91.994 264.785,90.899 C265.032,90.902 265.28,90.907 265.528,90.91 C270.427,90.908 275.295,90.564 280.124,90.013 C284.947,89.41 289.729,88.605 294.448,87.544 C296.817,87.065 299.143,86.389 301.486,85.823 C303.811,85.184 306.116,84.47 308.427,83.798 C306.063,84.273 303.713,84.79 301.351,85.231 C298.974,85.598 296.62,86.073 294.235,86.349 C289.482,87.006 284.705,87.4 279.936,87.594 C275.165,87.735 270.399,87.668 265.679,87.272 C263.2,87.054 260.676,86.754 258.215,86.345 C258.435,86.088 258.657,85.832 258.862,85.555 C263.484,79.29 262.153,70.464 255.887,65.843 C252.126,63.067 247.447,62.454 243.303,63.749 C243.35,63.522 243.389,63.291 243.438,63.064 C243.935,60.721 244.514,58.395 245.209,56.106 C245.912,53.819 246.726,51.568 247.797,49.439 C248.903,47.379 250.209,45.207 252.487,44.234 C250.049,44.813 248.252,46.86 246.768,48.797 C245.293,50.81 244.067,52.984 242.957,55.203 C241.85,57.426 240.862,59.703 239.953,62.008 C239.836,62.305 239.731,62.604 239.618,62.901 C238.435,54.372 237.112,45.875 235.579,37.4 C234.439,31.189 233.186,24.994 231.648,18.864 C230.862,15.803 230.011,12.754 228.968,9.767 C228.458,8.271 227.867,6.799 227.186,5.37 C226.466,3.976 225.747,2.509 224.521,1.482 C225.673,2.58 226.286,4.073 226.91,5.493 C227.491,6.946 227.98,8.437 228.388,9.951 C229.233,12.969 229.879,16.041 230.462,19.123 C231.596,25.297 232.442,31.522 233.177,37.76 C234.146,46.15 234.909,54.576 235.533,63 C234.264,61.429 233,59.855 231.711,58.298 C227.982,53.808 224.163,49.392 220.204,45.101 C216.238,40.817 212.146,36.638 207.74,32.79 C205.542,30.867 203.243,29.041 200.784,27.45 C198.346,25.906 195.62,24.398 192.663,24.477 C195.607,24.608 198.141,26.266 200.437,27.949 C202.743,29.678 204.878,31.631 206.914,33.678 C210.988,37.771 214.743,42.179 218.364,46.686 C223.042,52.544 227.5,58.598 231.799,64.745 C231.576,64.634 231.357,64.523 231.133,64.413 C226.722,62.279 222.191,60.467 217.606,58.859 C213.001,57.3 208.346,55.941 203.636,54.841 C201.295,54.239 198.909,53.834 196.553,53.324 C194.179,52.885 191.795,52.524 189.422,52.122 C191.757,52.723 194.097,53.282 196.415,53.914 C198.714,54.621 201.041,55.218 203.308,56.01 C207.872,57.488 212.342,59.215 216.719,61.119 C221.076,63.07 225.335,65.206 229.412,67.62 C231.234,68.709 233.062,69.863 234.824,71.073 C231.934,77.059 233.605,84.438 239.15,88.529 C243.355,91.631 248.708,92.04 253.175,90.086 C253.75,90.342 253.098,90.616 253.098,90.616 C253.816,92.825 254.47,95.169 255.041,97.483 C255.613,99.809 256.106,102.156 256.477,104.52 C256.841,106.881 257.089,109.264 257.052,111.647 C256.955,113.983 256.726,116.506 255.099,118.376 C257.042,116.793 257.767,114.166 258.258,111.776 C258.709,109.323 258.867,106.83 258.899,104.35 C258.924,101.867 258.823,99.388 258.637,96.915 C258.614,96.598 258.577,96.282 258.549,95.964 C260.945,99.553 263.374,103.116 265.836,106.654 C265.542,107.714 265.256,108.776 264.984,109.841 C263.445,115.971 262.194,122.166 261.052,128.378 C259.519,136.852 258.196,145.349 257.013,153.879 C256.9,153.582 256.794,153.283 256.678,152.985 C255.768,150.679 254.779,148.403 253.674,146.181 C252.565,143.962 251.337,141.787 249.863,139.774 C248.377,137.837 246.581,135.789 244.143,135.211 C246.423,136.184 247.727,138.357 248.833,140.416 C249.904,142.545 250.719,144.798 251.421,147.083 C252.119,149.372 252.696,151.698 253.194,154.041 C253.242,154.268 253.282,154.499 253.329,154.728 C249.184,153.431 244.504,154.045 240.743,156.82 C234.478,161.442 233.146,170.267 237.769,176.532 C237.973,176.809 238.195,177.065 238.415,177.322 C235.955,177.731 233.43,178.032 230.952,178.249 C226.231,178.645 221.465,178.712 216.694,178.57 C211.925,178.378 207.149,177.984 202.396,177.327 C201.69,177.245 200.989,177.142 200.287,177.035 C219.412,148.43 238.555,105.999 236.95,90.509 C212.448,98.37 124.255,125.795 87.864,188.312 C70.54,218.069 61.284,257.19 56.473,291.93 C57.31,294.3 58.131,296.658 58.942,299.015 L63.073,310.817 C64.403,314.77 65.79,318.707 67.046,322.707 C68.331,326.698 69.556,330.719 70.562,334.873 C68.101,331.37 66.09,327.63 64.264,323.814 C62.421,320 60.859,316.064 59.435,312.074 C58.096,308.057 56.884,303.983 56.044,299.814 C55.914,299.164 55.804,298.509 55.689,297.857 C54.86,304.439 54.184,310.829 53.644,316.93 C54.623,319.679 55.576,322.413 56.516,325.142 L60.647,336.945 C61.977,340.897 63.365,344.833 64.619,348.835 C65.904,352.824 67.129,356.845 68.136,360.999 C65.675,357.496 63.663,353.757 61.838,349.94 C59.995,346.126 58.433,342.19 57.009,338.2 C55.67,334.183 54.458,330.111 53.619,325.94 C53.437,325.036 53.275,324.128 53.124,323.216 C51.283,347.185 51.471,365.787 51.954,372.391 C53.248,390.097 54.435,418.49 28.415,439.973 C62.772,425.838 75.263,350.652 81.902,328.284 C95.597,282.155 114.308,270.037 113.643,258.777 C112.976,247.519 111.596,169.928 113.945,166.744 C116.293,163.561 126.415,217.952 121.792,242.058 C124.426,234.431 171.825,195.322 186.027,195.531 C190.363,190.917 195.013,184.851 199.677,177.947 C200.508,178.153 201.342,178.352 202.183,178.521 C206.901,179.582 211.685,180.387 216.508,180.99 C221.335,181.543 226.204,181.885 231.104,181.886 C231.352,181.884 231.598,181.879 231.847,181.878 C225.299,185.538 218.648,189.044 211.885,192.279 C206.663,194.757 201.363,197.089 195.913,198.998 C193.188,199.953 190.417,200.779 187.587,201.332 C184.787,201.848 181.783,202.235 179.078,201.069 C181.704,202.43 184.814,202.259 187.68,201.933 C190.587,201.573 193.453,200.93 196.27,200.157 C201.911,198.614 207.417,196.634 212.851,194.506 C218.284,192.37 223.647,190.058 228.959,187.642 C230.798,186.802 232.622,185.937 234.448,185.075 C230.215,192.386 225.857,199.637 221.331,206.768 C217.951,212.061 214.477,217.296 210.767,222.358 C208.9,224.878 206.978,227.361 204.905,229.712 C203.876,230.896 202.788,232.024 201.63,233.079 C200.451,234.085 199.249,235.161 197.733,235.649 C199.283,235.257 200.57,234.251 201.827,233.312 C203.061,232.321 204.236,231.253 205.346,230.129 C207.586,227.895 209.68,225.521 211.719,223.109 C215.777,218.261 219.602,213.231 223.335,208.136 C228.408,201.177 233.299,194.105 238.081,186.943 C238.054,187.26 238.018,187.574 237.994,187.893 C237.808,190.365 237.705,192.844 237.734,195.327 C237.765,197.808 237.921,200.299 238.372,202.753 C238.865,205.144 239.588,207.77 241.532,209.352 C239.904,207.484 239.676,204.959 239.579,202.625 C239.542,200.242 239.789,197.859 240.154,195.496 C240.524,193.133 241.018,190.787 241.59,188.46 C242.161,186.148 242.813,183.801 243.533,181.594 L242.251,181.285 L242.379,181.221 C242.736,181.173 243.095,181.118 243.456,181.064 C247.923,183.016 253.277,182.608 257.481,179.505 C263.025,175.417 264.697,168.036 261.805,162.049 M465.047,408.818 C462.934,406.535 460.909,404.148 459.125,401.463 C461.944,402.924 464.524,404.683 467.014,406.547 C469.504,408.412 471.913,410.375 474.214,412.462 C476.524,414.537 478.732,416.727 480.85,419.014 C482.966,421.3 484.993,423.686 486.752,426.344 C483.91,424.855 481.331,423.093 478.841,421.233 C476.354,419.372 473.958,417.415 471.663,415.344 C469.359,413.283 467.164,411.1 465.047,408.818 M465.996,397.701 C468.657,399.472 471.242,401.341 473.725,403.339 C476.215,405.325 478.612,407.432 480.923,409.642 C483.236,411.852 485.463,414.165 487.452,416.775 C484.464,415.407 481.717,413.745 479.053,411.979 C476.391,410.211 473.812,408.341 471.328,406.352 C468.834,404.373 466.444,402.265 464.131,400.059 C461.82,397.85 459.592,395.533 457.6,392.915 C460.584,394.274 463.333,395.934 465.996,397.701 M464.976,388.859 C467.81,390.535 470.571,392.313 473.236,394.223 C475.908,396.122 478.492,398.146 481.001,400.276 C483.507,402.41 485.937,404.652 488.15,407.207 C485.018,405.954 482.102,404.39 479.264,402.717 C476.426,401.041 473.665,399.258 470.992,397.352 C468.311,395.455 465.726,393.426 463.215,391.295 C460.708,389.162 458.279,386.919 456.077,384.368 C459.222,385.622 462.14,387.186 464.976,388.859 M454.553,375.82 C457.859,376.973 460.945,378.441 463.956,380.021 C466.963,381.604 469.899,383.289 472.747,385.113 C475.602,386.925 478.375,388.866 481.077,390.92 C483.78,392.975 486.413,395.144 488.848,397.64 C485.569,396.496 482.485,395.028 479.472,393.447 C476.459,391.864 473.516,390.169 470.655,388.346 C467.788,386.532 465.008,384.583 462.301,382.529 C459.594,380.473 456.965,378.304 454.553,375.82 M462.933,371.185 C466.114,372.674 469.229,374.272 472.26,376.01 C475.298,377.736 478.26,379.595 481.158,381.569 C484.056,383.546 486.89,385.64 489.546,388.07 C486.117,387.034 482.866,385.66 479.677,384.173 C476.491,382.68 473.366,381.073 470.317,379.333 C467.262,377.606 464.291,375.736 461.386,373.762 C458.484,371.783 455.654,369.69 453.031,367.273 C456.495,368.323 459.75,369.696 462.933,371.185 M461.801,362.488 C465.146,363.899 468.44,365.407 471.667,367.05 C474.899,368.681 478.068,370.442 481.181,372.315 C484.296,374.19 487.351,376.179 490.246,378.501 C486.643,377.607 483.211,376.362 479.841,374.993 C476.472,373.622 473.165,372.125 469.928,370.485 C466.686,368.856 463.523,367.07 460.422,365.157 C457.331,363.24 454.291,361.188 451.507,358.727 C455.063,359.781 458.457,361.074 461.801,362.488 M437.374,306.839 C439.802,307.357 442.177,308.035 444.559,308.711 C446.899,309.489 449.251,310.253 451.555,311.145 C456.163,312.925 460.674,314.959 465.045,317.284 C469.392,319.649 473.663,322.185 477.641,325.163 C481.61,328.12 485.466,331.36 488.5,335.323 C484.4,332.549 480.207,330.107 476.003,327.669 C471.787,325.268 467.535,322.933 463.237,320.681 C461.116,319.499 458.951,318.398 456.79,317.281 C454.671,316.083 452.447,315.089 450.321,313.884 C448.151,312.771 445.984,311.637 443.831,310.456 C441.667,309.298 439.492,308.153 437.374,306.839 M440.432,299.792 C442.8,300.417 445.216,300.947 447.533,301.762 C452.239,303.204 456.77,305.159 461.219,307.269 C465.606,309.513 469.891,311.975 473.885,314.876 C477.87,317.764 481.697,320.958 484.794,324.817 C480.653,322.165 476.478,319.759 472.279,317.401 C468.06,315.085 463.821,312.839 459.514,310.718 C457.35,309.673 455.214,308.578 453.012,307.606 L449.75,306.058 C448.643,305.587 447.547,305.084 446.455,304.569 C444.272,303.526 442.034,302.622 439.832,301.583 C437.621,300.565 435.372,299.644 433.17,298.503 C435.61,298.823 438.031,299.269 440.432,299.792 M443.506,292.212 C445.918,292.733 448.22,293.597 450.567,294.344 C452.859,295.226 455.161,296.11 457.386,297.153 C461.845,299.232 466.136,301.67 470.138,304.523 C474.14,307.354 477.941,310.53 481.088,314.31 C476.914,311.751 472.759,309.357 468.554,307.063 C464.338,304.801 460.115,302.588 455.767,300.646 C451.458,298.621 447.068,296.774 442.599,295.077 C438.147,293.302 433.579,291.876 428.968,290.165 C433.857,290.296 438.766,290.936 443.506,292.212 M439.449,282.466 C444.291,283.409 449.038,284.894 453.54,286.896 C458.03,288.922 462.363,291.288 466.376,294.114 C470.387,296.927 474.186,300.079 477.383,303.802 C468.991,298.834 460.689,294.21 451.992,290.419 C447.686,288.43 443.22,286.87 438.717,285.382 C434.196,283.881 429.554,282.923 424.765,281.827 C429.614,281.317 434.618,281.466 439.449,282.466 M435.311,272.502 C440.252,273.189 445.049,274.636 449.642,276.499 C454.188,278.476 458.532,280.858 462.574,283.665 C466.609,286.468 470.434,289.594 473.679,293.294 C469.436,290.837 465.243,288.478 461.017,286.222 C456.771,284.01 452.521,281.866 448.148,280.046 C443.782,278.209 439.319,276.696 434.754,275.454 C430.153,274.372 425.486,273.718 420.563,273.49 C425.279,272.118 430.358,271.917 435.311,272.502 M431.012,262.394 C436.086,262.719 440.988,264.155 445.632,266 C450.254,267.931 454.649,270.317 458.727,273.14 C462.809,275.948 466.665,279.095 469.974,282.788 C465.677,280.345 461.448,277.964 457.179,275.702 C452.897,273.475 448.602,271.329 444.177,269.565 C441.989,268.619 439.747,267.839 437.489,267.132 C435.244,266.368 432.942,265.842 430.631,265.374 C425.992,264.468 421.242,264.306 416.359,265.153 C420.718,262.765 425.985,261.98 431.012,262.394 M393.252,231.517 C395.605,230.891 397.962,230.206 400.363,229.731 C405.17,228.815 410.071,228.21 415.009,228.269 C419.935,228.343 424.893,228.808 429.683,230.093 C432.074,230.741 434.425,231.524 436.675,232.557 C438.908,233.598 441.107,234.789 442.947,236.425 C438.412,234.647 433.748,233.738 429.088,233.027 C424.415,232.393 419.707,232.115 414.991,232.117 L411.449,232.103 L407.902,232.273 C405.526,232.25 403.174,232.64 400.786,232.705 L393.63,233.369 C391.242,233.646 388.849,233.95 386.391,234.083 C388.634,233.122 390.939,232.319 393.252,231.517 M388.115,226.409 C390.371,225.774 392.621,225.042 394.931,224.584 C399.536,223.575 404.247,223.016 408.983,222.896 C413.718,222.865 418.481,223.174 423.126,224.185 C427.744,225.197 432.363,226.685 436.288,229.346 C431.747,228.162 427.211,227.58 422.68,227.145 C418.142,226.773 413.602,226.641 409.058,226.744 C406.784,226.781 404.51,226.849 402.237,227.04 C399.949,227.08 397.689,227.424 395.393,227.554 C393.107,227.747 390.828,228.064 388.516,228.257 C386.214,228.517 383.919,228.849 381.552,228.984 C383.695,228.022 385.894,227.194 388.115,226.409 M382.99,221.289 C385.15,220.639 387.3,219.862 389.523,219.415 C393.93,218.307 398.463,217.783 403.006,217.481 C407.557,217.338 412.132,217.487 416.636,218.231 C421.12,218.969 425.605,220.115 429.629,222.266 C425.146,221.645 420.744,221.376 416.345,221.211 C411.949,221.095 407.566,221.115 403.185,221.326 C400.997,221.46 398.801,221.528 396.616,221.769 C395.52,221.858 394.417,221.909 393.325,222.029 C392.233,222.171 391.134,222.281 390.032,222.377 C387.825,222.559 385.641,222.922 383.417,223.13 C381.197,223.38 378.995,223.741 376.711,223.886 C378.758,222.92 380.858,222.062 382.99,221.289 M384.136,214.217 C388.358,213.043 392.713,212.456 397.075,212.039 C401.445,211.727 405.844,211.745 410.203,212.218 C414.55,212.69 418.903,213.515 422.971,215.187 C418.6,215.082 414.338,215.113 410.079,215.21 C405.826,215.356 401.592,215.5 397.371,215.876 C395.259,216.036 393.144,216.2 391.039,216.455 L387.868,216.773 C386.816,216.914 385.761,217.058 384.7,217.169 C380.458,217.654 376.244,218.35 371.872,218.788 C375.774,216.817 379.894,215.276 384.136,214.217 M378.766,208.982 C380.782,208.328 382.86,207.964 384.919,207.484 C386.998,207.127 389.082,206.769 391.179,206.533 C395.377,206.08 399.606,205.901 403.821,206.138 C408.028,206.352 412.248,206.875 416.312,208.107 L403.871,209.13 C399.766,209.507 395.677,209.842 391.61,210.357 C387.533,210.786 383.47,211.334 379.395,211.921 C375.304,212.462 371.251,213.21 367.032,213.69 C370.751,211.687 374.697,210.095 378.766,208.982 M373.406,203.703 C375.337,203.024 377.333,202.602 379.307,202.081 C381.3,201.656 383.301,201.266 385.312,200.944 C389.346,200.369 393.406,199.979 397.48,199.976 C401.544,199.951 405.632,200.19 409.654,201.028 C401.618,202.499 393.752,203.495 385.893,204.748 C381.956,205.296 378.049,205.991 374.115,206.624 C370.168,207.245 366.268,208.045 362.191,208.591 C365.727,206.534 369.506,204.892 373.406,203.703 M331.982,193.591 C336.653,191.169 341.778,189.774 346.857,188.649 C351.956,187.515 357.114,186.739 362.278,186.149 C367.45,185.619 372.629,185.208 377.827,185.099 C383.02,184.968 388.226,185.02 393.439,185.538 C388.315,186.611 383.193,187.39 378.068,188.084 C372.946,188.802 367.82,189.374 362.702,189.974 L347.347,191.614 C342.224,192.179 337.13,192.702 331.982,193.591 M338.583,184.73 C341.147,184.028 343.756,183.613 346.351,183.084 C348.958,182.665 351.573,182.27 354.19,181.94 C359.434,181.347 364.69,180.913 369.961,180.809 C375.229,180.679 380.51,180.752 385.787,181.328 C375.381,183.318 365.001,184.455 354.65,185.761 C349.467,186.342 344.304,187.007 339.144,187.682 C333.986,188.402 328.839,189.082 323.666,190.211 C328.299,187.57 333.457,186.013 338.583,184.73 M330.305,180.845 C335.494,179.386 340.792,178.489 346.096,177.748 C351.41,177.075 356.744,176.63 362.091,176.517 C367.436,176.386 372.792,176.477 378.133,177.117 C372.846,178.069 367.584,178.81 362.327,179.501 L346.596,181.564 C341.363,182.228 336.139,182.947 330.941,183.783 C325.741,184.644 320.566,185.545 315.348,186.831 C319.973,184.052 325.132,182.274 330.305,180.845 M322.033,176.994 C327.259,175.394 332.625,174.405 337.996,173.568 C343.38,172.816 348.795,172.357 354.219,172.222 C359.641,172.086 365.076,172.198 370.482,172.908 C365.11,173.792 359.778,174.511 354.456,175.207 C349.138,175.949 343.822,176.564 338.541,177.378 C335.896,177.739 333.252,178.124 330.625,178.575 L326.673,179.206 C325.369,179.468 324.056,179.697 322.738,179.914 C317.498,180.922 312.295,182.035 307.032,183.449 C311.662,180.559 316.816,178.572 322.033,176.994 M313.762,173.17 C319.035,171.481 324.45,170.313 329.891,169.403 C335.351,168.607 340.839,168.063 346.344,167.928 C351.842,167.78 357.36,167.916 362.83,168.698 C357.375,169.51 351.971,170.207 346.582,170.911 C341.197,171.654 335.826,172.35 330.486,173.206 C325.141,174.033 319.836,175.011 314.535,176.075 C309.255,177.233 304.027,178.544 298.714,180.068 C303.361,177.083 308.508,174.9 313.762,173.17 M305.503,169.399 C310.812,167.587 316.273,166.232 321.788,165.276 C327.315,164.39 332.881,163.779 338.464,163.63 C344.043,163.469 349.644,163.626 355.176,164.487 C344.114,165.931 333.235,167.211 322.435,169.069 C317.027,169.94 311.691,171.099 306.343,172.284 C301.007,173.545 295.764,175.079 290.397,176.688 C295.073,173.628 300.205,171.233 305.503,169.399 M495.92,374.713 C494.789,366.781 459.391,343.039 449.151,326.666 C453.155,323.112 491.893,360.336 494.192,349.667 C496.49,338.999 477.449,287.242 469.465,273.989 C461.482,260.736 400.669,243.987 391.678,240.45 C391.95,238.656 431.685,237.256 453.422,248.338 C465.2,252.411 417.858,200.797 396.824,182.017 C378.974,166.472 318.829,142.251 264.454,168.011 C283.281,181.638 351.813,200.47 405.287,256.732 C454.376,308.382 450.784,393.851 449.67,422.937 C449.982,424.246 450.336,425.534 450.786,426.792 C452.083,430.042 453.766,433.078 455.687,436.013 C459.616,441.861 464.512,447.069 469.625,452.495 C466.132,451.086 462.996,448.965 460.115,446.554 C457.254,444.115 454.612,441.349 452.492,438.157 C451.293,436.358 450.266,434.43 449.438,432.416 C449.42,434.227 449.413,436.295 449.424,438.567 C449.623,439.248 449.826,439.925 450.064,440.593 C451.361,443.843 453.044,446.879 454.966,449.813 C458.894,455.662 463.792,460.87 468.903,466.297 C465.412,464.887 462.275,462.767 459.394,460.355 C456.534,457.916 453.891,455.149 451.769,451.958 C451.018,450.828 450.333,449.646 449.719,448.426 C450.091,451.637 450.714,454.625 451.74,457.495 C453.036,460.745 454.719,463.781 456.642,466.714 C460.57,472.563 465.467,477.774 470.579,483.198 C467.086,481.789 463.951,479.668 461.07,477.256 C458.209,474.817 455.567,472.051 453.445,468.859 C452.232,467.037 451.194,465.083 450.359,463.042 C452.475,491.004 459.145,525.265 479.456,534.024 C454.941,504.85 502.947,423.968 495.92,374.713 M413.926,398.717 C416.924,391.113 420.349,383.955 423.224,376.592 C424.717,372.941 426.076,369.246 427.171,365.492 C428.244,361.724 429.152,357.929 429.363,353.826 C430.757,357.727 430.688,362.049 430.109,366.127 C429.876,368.201 429.304,370.184 428.816,372.194 C428.195,374.153 427.565,376.12 426.799,378.02 C425.251,381.819 423.437,385.489 421.278,388.951 C419.142,392.42 416.775,395.756 413.926,398.717 M413.389,377.162 C414.734,372.972 416.156,368.828 417.365,364.636 C418.046,362.562 418.607,360.457 419.184,358.359 L420.034,355.208 C420.272,354.15 420.506,353.093 420.776,352.038 C421.701,347.787 422.474,343.528 422.775,339.033 C424.08,343.365 424.146,348.011 423.746,352.506 C423.378,357.036 422.29,361.433 421.048,365.751 C419.728,370.051 418.112,374.242 416.168,378.275 C414.237,382.313 412.068,386.243 409.371,389.856 C410.637,385.542 412.009,381.343 413.389,377.162 M408.098,366.767 C409.202,362.061 410.423,357.401 411.432,352.705 C411.989,350.368 412.506,348.024 412.967,345.672 L413.701,342.15 C413.887,340.969 414.108,339.791 414.343,338.612 C415.14,333.883 415.815,329.151 416.189,324.239 C417.417,329.021 417.585,334.036 417.328,338.956 C417.096,343.901 416.211,348.756 415.185,353.56 C414.077,358.347 412.672,363.051 410.96,367.644 C409.252,372.232 407.306,376.741 404.814,380.993 C405.816,376.178 406.948,371.464 408.098,366.767 M402.764,356.388 C403.634,351.175 404.624,345.997 405.452,340.801 C405.897,338.21 406.35,335.616 406.716,333.017 C407.183,330.426 407.473,327.819 407.885,325.219 C408.569,320.005 409.165,314.796 409.601,309.446 C410.767,314.69 411.012,320.107 410.88,325.466 C410.756,330.837 410.077,336.159 409.246,341.442 C408.329,346.71 407.164,351.927 405.683,357.058 C404.21,362.186 402.506,367.257 400.257,372.133 C400.974,366.819 401.856,361.597 402.764,356.388 M397.406,346.028 L399.439,328.927 C400.138,323.239 400.785,317.55 401.413,311.853 C401.991,306.149 402.522,300.454 403.014,294.652 C404.125,300.37 404.433,306.213 404.414,312.023 C404.392,317.837 403.9,323.626 403.26,329.388 C402.53,335.14 401.602,340.861 400.358,346.518 C399.128,352.176 397.679,357.794 395.701,363.271 C396.119,357.47 396.74,351.742 397.406,346.028 M391.145,354.409 C391.416,341.855 392.454,329.474 393.407,317.082 L396.426,279.858 C397.485,286.058 397.851,292.347 397.934,298.614 C398.014,304.887 397.696,311.146 397.243,317.389 C396.701,323.625 396.003,329.844 395.002,336.022 C394.019,342.199 392.833,348.351 391.145,354.409 M370.766,267.989 C370.631,273.81 370.365,279.619 370.117,285.436 C369.791,291.248 369.465,297.062 368.962,302.874 C368.483,308.688 367.898,314.501 366.985,320.315 C366.304,314.466 366.058,308.617 365.971,302.772 C365.859,296.926 366.022,291.083 366.272,285.244 C366.588,279.409 367.022,273.574 367.77,267.761 C368.501,261.956 369.425,256.132 371.104,250.478 C371.013,256.357 370.934,262.167 370.766,267.989 M362.04,257.111 C361.991,262.041 361.761,266.95 361.567,271.867 C361.293,276.779 361.025,281.695 360.583,286.607 C360.167,291.523 359.659,296.437 358.844,301.368 C358.066,296.428 357.742,291.476 357.59,286.526 C357.418,281.574 357.524,276.626 357.722,271.682 C357.985,266.741 358.38,261.802 359.042,256.889 C359.685,251.974 360.563,247.077 361.889,242.26 C362.157,247.254 362.119,252.184 362.04,257.111 M352.436,250.023 C352.211,254.839 352.034,259.652 351.924,264.474 L351.583,278.976 C351.472,283.824 351.327,288.683 350.991,293.601 C349.739,288.825 349.048,283.957 348.591,279.079 C348.124,274.196 347.989,269.288 348.076,264.378 C348.256,259.468 348.603,254.553 349.449,249.691 C350.3,244.839 351.514,240.007 353.528,235.497 C353.069,240.411 352.717,245.208 352.436,250.023 M331.322,273.775 C329.928,267.978 328.755,262.136 327.626,256.287 C326.569,250.425 325.557,244.555 324.768,238.649 C323.954,232.748 323.277,226.824 322.977,220.848 C324.86,226.57 326.363,232.348 327.73,238.148 C329.123,243.942 330.293,249.774 331.416,255.613 C332.468,261.465 333.477,267.323 334.265,273.228 C335.077,279.126 335.756,285.05 336.065,291.054 C334.193,285.355 332.692,279.577 331.322,273.775 M323.661,268.516 C322.034,262.878 320.662,257.177 319.365,251.459 C318.134,245.726 317.009,239.963 316.168,234.146 C315.315,228.338 314.637,222.466 314.674,216.549 C316.226,222.243 317.714,227.887 319.118,233.565 C320.551,239.234 321.832,244.931 323.124,250.633 C324.341,256.35 325.55,262.07 326.577,267.837 C327.627,273.599 328.571,279.386 329.184,285.263 C327.021,279.764 325.264,274.157 323.661,268.516 M316.061,263.262 C314.219,257.779 312.656,252.215 311.217,246.614 C310.531,243.806 309.89,240.983 309.267,238.158 C308.741,235.309 308.116,232.484 307.719,229.607 C306.836,223.882 306.163,218.078 306.37,212.251 L314.95,245.679 C316.305,251.262 317.702,256.837 318.946,262.462 C320.212,268.081 321.397,273.726 322.303,279.473 C319.87,274.185 317.878,268.749 316.061,263.262 M308.407,258.054 C306.351,252.732 304.577,247.306 303.005,241.815 C301.512,236.304 300.122,230.753 299.247,225.085 C298.345,219.436 297.744,213.688 298.066,207.952 C299.342,213.543 300.75,218.995 302.185,224.456 C302.571,225.815 302.936,227.176 303.282,228.543 L304.424,232.619 C305.172,235.34 305.91,238.065 306.711,240.773 L311.251,257.125 C312.748,262.593 314.188,268.085 315.422,273.682 C312.692,268.635 310.45,263.379 308.407,258.054 M300.697,252.903 C298.408,247.75 296.456,242.451 294.731,237.071 C293.105,231.664 291.672,226.18 290.752,220.586 C289.857,214.997 289.355,209.302 289.762,203.653 C290.957,209.19 292.265,214.576 293.689,219.947 C295.182,225.299 296.741,230.624 298.406,235.925 C300.031,241.241 301.799,246.518 303.493,251.837 C305.222,257.147 306.943,262.467 308.542,267.892 C305.489,263.12 302.973,258.059 300.697,252.903 M292.929,247.827 C290.395,242.848 288.274,237.665 286.414,232.386 C284.624,227.083 283.207,221.639 282.264,216.108 C281.347,210.575 281.002,204.924 281.459,199.355 C282.605,204.839 283.761,210.179 285.201,215.469 C286.711,220.734 288.242,225.977 290.057,231.144 C293.578,241.521 297.647,251.692 301.659,262.103 C298.261,257.651 295.45,252.805 292.929,247.827 M444.676,463.369 C445.16,456.763 445.348,438.162 443.506,414.194 C443.355,415.106 443.194,416.014 443.013,416.917 C442.172,421.089 440.96,425.159 439.622,429.179 C438.197,433.169 436.636,437.104 434.792,440.917 C432.968,444.733 430.957,448.474 428.495,451.978 C429.5,447.822 430.726,443.803 432.011,439.812 C433.267,435.811 434.654,431.873 435.985,427.922 L440.116,416.12 C441.054,413.391 442.009,410.656 442.987,407.907 C442.446,401.807 441.772,395.415 440.942,388.832 C440.827,389.486 440.716,390.142 440.586,390.79 C439.747,394.961 438.534,399.033 437.196,403.051 C435.772,407.041 434.209,410.977 432.367,414.79 C430.542,418.607 428.529,422.347 426.069,425.85 C427.075,421.695 428.299,417.675 429.584,413.685 C430.84,409.684 432.227,405.747 433.558,401.795 L437.69,389.992 C438.501,387.636 439.321,385.276 440.157,382.907 C435.347,348.167 426.09,309.046 408.768,279.289 C372.375,216.773 284.183,189.348 259.682,181.486 C257.667,200.92 288.307,262.777 310.603,286.508 C324.804,286.299 372.204,325.408 374.839,333.035 C370.215,308.929 380.337,254.537 382.686,257.722 C385.035,260.905 383.655,338.496 382.989,349.756 C382.322,361.015 401.033,373.133 414.728,419.262 C421.368,441.628 433.858,516.815 468.215,530.949 C442.196,509.467 443.382,481.074 444.676,463.369 M24.968,324.367 C22.673,326.439 20.276,328.397 17.789,330.255 C15.301,332.115 12.721,333.877 9.878,335.365 C11.639,332.707 13.663,330.322 15.78,328.036 C17.898,325.75 20.106,323.56 22.417,321.483 C24.717,319.399 27.126,317.435 29.615,315.569 C32.107,313.705 34.686,311.946 37.506,310.485 C35.722,313.171 33.696,315.559 31.582,317.843 C29.467,320.123 27.272,322.307 24.968,324.367 M15.706,318.663 C18.019,316.455 20.416,314.349 22.906,312.36 C25.389,310.364 27.974,308.494 30.636,306.725 C33.299,304.956 36.046,303.296 39.03,301.938 C37.038,304.557 34.811,306.872 32.499,309.081 C30.186,311.288 27.795,313.396 25.303,315.374 C22.819,317.365 20.24,319.234 17.577,321.001 C14.914,322.768 12.166,324.43 9.178,325.798 C11.167,323.189 13.395,320.874 15.706,318.663 M15.631,309.3 C18.139,307.168 20.723,305.146 23.396,303.246 C26.06,301.335 28.82,299.558 31.655,297.884 C34.491,296.21 37.409,294.646 40.553,293.392 C38.352,295.942 35.924,298.185 33.415,300.319 C30.905,302.449 28.319,304.479 25.639,306.374 C22.966,308.281 20.204,310.065 17.366,311.739 C14.528,313.413 11.613,314.978 8.48,316.23 C10.694,313.675 13.124,311.433 15.631,309.3 M15.553,299.943 C18.257,297.89 21.029,295.948 23.883,294.137 C26.731,292.312 29.669,290.626 32.675,289.043 C35.686,287.462 38.772,285.995 42.076,284.845 C39.665,287.328 37.035,289.496 34.331,291.552 C31.622,293.607 28.843,295.556 25.976,297.368 C23.115,299.192 20.171,300.888 17.159,302.47 C14.145,304.051 11.061,305.519 7.783,306.661 C10.218,304.167 12.851,301.998 15.553,299.943 M15.473,290.593 C18.371,288.618 21.331,286.759 24.371,285.032 C27.402,283.294 30.517,281.697 33.698,280.206 C36.882,278.718 40.137,277.346 43.6,276.298 C40.977,278.712 38.146,280.806 35.244,282.783 C32.34,284.759 29.368,286.628 26.314,288.357 C23.265,290.097 20.141,291.703 16.954,293.194 C13.765,294.685 10.512,296.056 7.083,297.093 C9.74,294.663 12.575,292.568 15.473,290.593 M15.45,281.339 C18.563,279.464 21.731,277.704 24.965,276.072 C28.191,274.429 31.485,272.921 34.83,271.511 C38.175,270.097 41.568,268.805 45.124,267.749 C42.339,270.21 39.3,272.263 36.207,274.181 C33.109,276.093 29.944,277.878 26.702,279.509 C23.467,281.148 20.158,282.645 16.789,284.016 C13.419,285.384 9.986,286.629 6.385,287.524 C9.28,285.202 12.336,283.213 15.45,281.339 M46.31,222.907 C44.182,224.112 41.96,225.107 39.84,226.304 C37.68,227.42 35.514,228.522 33.396,229.704 C29.097,231.956 24.846,234.292 20.627,236.691 C16.424,239.13 12.23,241.571 8.132,244.346 C11.165,240.383 15.02,237.143 18.989,234.185 C22.968,231.207 27.239,228.67 31.586,226.306 C35.956,223.982 40.468,221.947 45.075,220.167 C47.377,219.277 49.731,218.511 52.072,217.733 C54.454,217.059 56.829,216.378 59.257,215.862 C57.139,217.175 54.964,218.32 52.8,219.479 C50.646,220.66 48.48,221.793 46.31,222.907 M22.745,223.899 C26.739,220.998 31.024,218.536 35.412,216.292 C39.861,214.183 44.391,212.228 49.098,210.785 C51.414,209.97 53.829,209.44 56.198,208.814 C58.6,208.29 61.021,207.845 63.46,207.524 C61.261,208.667 59.009,209.588 56.8,210.606 C54.598,211.646 52.357,212.55 50.175,213.591 C49.083,214.106 47.989,214.61 46.88,215.08 L43.619,216.628 C41.419,217.6 39.279,218.696 37.118,219.741 C32.81,221.862 28.572,224.108 24.352,226.424 C20.152,228.782 15.977,231.188 11.837,233.838 C14.933,229.981 18.761,226.787 22.745,223.899 M26.493,213.546 C30.494,210.692 34.786,208.255 39.244,206.176 C41.471,205.133 43.771,204.249 46.063,203.366 C48.41,202.62 50.713,201.756 53.123,201.235 C57.865,199.959 62.774,199.319 67.663,199.188 C63.053,200.899 58.483,202.326 54.032,204.101 C49.563,205.796 45.171,207.645 40.863,209.669 C36.515,211.611 32.291,213.823 28.078,216.086 C23.872,218.379 19.717,220.774 15.541,223.331 C18.69,219.552 22.49,216.377 26.493,213.546 M30.254,203.137 C34.269,200.311 38.601,197.945 43.091,195.919 C47.592,193.916 52.34,192.432 57.183,191.489 C62.012,190.489 67.016,190.341 71.866,190.85 C67.076,191.945 62.435,192.903 57.913,194.404 C53.41,195.894 48.944,197.453 44.639,199.442 C35.941,203.234 27.64,207.857 19.247,212.824 C22.444,209.103 26.243,205.948 30.254,203.137 M34.057,192.688 C38.099,189.881 42.443,187.498 46.989,185.523 C51.581,183.659 56.379,182.212 61.32,181.525 C66.272,180.938 71.351,181.14 76.069,182.513 C71.145,182.74 66.476,183.396 61.875,184.478 C57.311,185.719 52.848,187.231 48.484,189.069 C44.109,190.889 39.859,193.033 35.613,195.245 C31.389,197.502 27.194,199.86 22.951,202.318 C26.196,198.617 30.021,195.49 34.057,192.688 M37.903,182.164 C41.982,179.339 46.376,176.952 50.999,175.024 C55.643,173.177 60.544,171.742 65.619,171.415 C70.646,171.003 75.912,171.788 80.272,174.176 C75.388,173.329 70.639,173.491 65.999,174.397 C63.689,174.865 61.388,175.391 59.143,176.156 C56.884,176.86 54.642,177.642 52.454,178.587 C48.029,180.353 43.733,182.497 39.451,184.725 C35.182,186.988 30.953,189.368 26.656,191.811 C29.966,188.118 33.823,184.971 37.903,182.164 M103,142.392 L95.845,141.728 C93.456,141.663 91.105,141.274 88.728,141.296 L85.182,141.126 L81.64,141.14 C76.924,141.137 72.215,141.417 67.541,142.051 C62.883,142.761 58.218,143.67 53.684,145.447 C55.523,143.812 57.722,142.621 59.956,141.579 C62.205,140.547 64.557,139.764 66.947,139.116 C71.738,137.832 76.696,137.365 81.622,137.292 C86.559,137.233 91.459,137.837 96.268,138.753 C98.669,139.229 101.026,139.914 103.378,140.539 C105.693,141.342 107.997,142.146 110.24,143.105 C107.783,142.973 105.389,142.67 103,142.392 M73.502,133.208 C78.15,132.197 82.912,131.888 87.647,131.919 C92.385,132.038 97.095,132.599 101.7,133.607 C104.01,134.065 106.26,134.796 108.515,135.432 C110.736,136.215 112.937,137.046 115.079,138.007 C112.711,137.871 110.415,137.54 108.115,137.279 C105.802,137.086 103.524,136.769 101.237,136.576 C98.942,136.447 96.681,136.103 94.395,136.062 C92.12,135.872 89.846,135.804 87.573,135.766 C83.028,135.664 78.488,135.796 73.95,136.168 C69.418,136.603 64.883,137.184 60.342,138.368 C64.268,135.708 68.886,134.22 73.502,133.208 M79.994,127.254 C84.498,126.511 89.072,126.362 93.625,126.504 C98.166,126.806 102.7,127.33 107.109,128.438 C109.331,128.884 111.48,129.662 113.64,130.312 C115.772,131.083 117.873,131.941 119.918,132.909 C117.637,132.765 115.433,132.403 113.214,132.154 C110.989,131.944 108.805,131.582 106.598,131.4 C105.496,131.303 104.398,131.194 103.307,131.052 C102.212,130.931 101.111,130.882 100.016,130.792 C97.829,130.552 95.634,130.483 93.445,130.349 C89.064,130.138 84.683,130.117 80.285,130.234 C75.887,130.399 71.485,130.668 67.001,131.29 C71.026,129.137 75.511,127.991 79.994,127.254 M86.428,121.242 C90.786,120.767 95.185,120.751 99.557,121.062 C103.917,121.479 108.272,122.066 112.495,123.24 C116.736,124.299 120.856,125.84 124.758,127.81 C120.388,127.374 116.173,126.678 111.93,126.19 C110.869,126.081 109.815,125.938 108.762,125.796 L105.592,125.478 C103.487,125.224 101.372,125.06 99.259,124.899 C95.038,124.522 90.804,124.378 86.552,124.233 C82.294,124.136 78.03,124.105 73.66,124.209 C77.727,122.538 82.081,121.713 86.428,121.242 M92.81,115.159 C97.025,114.923 101.253,115.104 105.451,115.556 C107.548,115.791 109.632,116.15 111.711,116.507 C113.771,116.988 115.85,117.351 117.865,118.005 C121.935,119.118 125.879,120.709 129.6,122.712 C125.379,122.233 121.326,121.485 117.235,120.943 C113.16,120.357 109.097,119.809 105.02,119.38 C100.953,118.865 96.864,118.53 92.76,118.153 L80.319,117.131 C84.383,115.898 88.603,115.374 92.81,115.159 M99.153,108.998 C103.226,109.002 107.284,109.393 111.317,109.967 C113.328,110.287 115.331,110.679 117.324,111.102 C119.297,111.625 121.292,112.047 123.224,112.725 C127.124,113.914 130.902,115.557 134.438,117.614 C130.363,117.067 126.462,116.267 122.517,115.647 C118.581,115.014 114.675,114.319 110.737,113.772 C102.878,112.518 95.013,111.522 86.977,110.05 C90.998,109.213 95.085,108.974 99.153,108.998 M118.804,94.122 C124,94.231 129.181,94.642 134.354,95.171 C139.518,95.762 144.674,96.538 149.773,97.672 C154.852,98.798 159.978,100.191 164.649,102.614 C159.5,101.725 154.407,101.201 149.284,100.637 L133.928,98.996 C128.811,98.397 123.685,97.825 118.563,97.106 C113.438,96.412 108.315,95.635 103.191,94.561 C108.405,94.043 113.609,93.991 118.804,94.122 M126.669,89.832 C131.941,89.937 137.197,90.371 142.44,90.963 C145.058,91.293 147.672,91.687 150.28,92.107 C152.875,92.637 155.484,93.05 158.049,93.753 C163.175,95.037 168.332,96.593 172.966,99.233 C167.791,98.105 162.645,97.425 157.486,96.704 C152.327,96.029 147.163,95.365 141.979,94.785 C131.628,93.477 121.249,92.34 110.844,90.35 C116.121,89.773 121.401,89.701 126.669,89.832 M134.54,85.54 C139.887,85.654 145.221,86.098 150.536,86.77 C155.838,87.511 161.138,88.41 166.325,89.869 C171.499,91.297 176.658,93.076 181.282,95.853 C176.064,94.569 170.89,93.667 165.69,92.806 C160.492,91.971 155.269,91.251 150.035,90.586 L134.303,88.524 C129.046,87.832 123.784,87.092 118.496,86.141 C123.838,85.5 129.195,85.409 134.54,85.54 M142.412,81.247 C147.835,81.38 153.249,81.839 158.635,82.591 C164.006,83.426 169.372,84.416 174.598,86.016 C179.814,87.595 184.97,89.582 189.6,92.472 C184.335,91.059 179.133,89.945 173.894,88.937 C172.575,88.72 171.262,88.49 169.957,88.228 L166.005,87.598 C163.378,87.147 160.734,86.763 158.09,86.401 C152.81,85.586 147.492,84.973 142.175,84.23 C136.852,83.533 131.52,82.814 126.148,81.931 C131.555,81.222 136.991,81.109 142.412,81.247 M150.287,76.951 C155.792,77.086 161.28,77.629 166.738,78.426 C172.18,79.336 177.596,80.504 182.869,82.193 C188.123,83.924 193.269,86.105 197.917,89.091 C192.605,87.567 187.376,86.255 182.095,85.096 C176.794,84.034 171.488,83.057 166.145,82.229 C160.806,81.372 155.434,80.677 150.049,79.935 C144.658,79.229 139.256,78.531 133.802,77.72 C139.271,76.938 144.789,76.803 150.287,76.951 M158.165,72.653 C163.75,72.802 169.316,73.413 174.843,74.299 C180.359,75.256 185.818,76.611 191.127,78.42 C196.427,80.257 201.558,82.652 206.234,85.711 C200.868,84.101 195.624,82.567 190.289,81.307 C184.94,80.123 179.604,78.963 174.195,78.093 C163.396,76.233 152.517,74.953 141.454,73.511 C146.987,72.649 152.588,72.491 158.165,72.653 M43.186,377.882 C41.064,381.074 38.422,383.842 35.56,386.279 C32.681,388.691 29.544,390.813 26.051,392.221 C31.163,386.796 36.061,381.585 39.989,375.737 C41.911,372.803 43.595,369.768 44.891,366.518 C45.916,363.649 46.539,360.659 46.91,357.449 C46.297,358.669 45.613,359.851 44.861,360.981 C42.74,364.173 40.097,366.94 37.236,369.378 C34.356,371.789 31.219,373.91 27.727,375.318 C32.838,369.896 37.735,364.684 41.665,358.836 C43.586,355.902 45.27,352.866 46.566,349.615 C46.805,348.948 47.009,348.271 47.207,347.59 C47.218,345.316 47.209,343.249 47.195,341.44 C46.365,343.453 45.338,345.381 44.14,347.181 C42.019,350.371 39.375,353.138 36.515,355.577 C33.635,357.988 30.498,360.108 27.006,361.519 C32.118,356.094 37.015,350.883 40.944,345.035 C42.864,342.103 44.549,339.065 45.845,335.815 C46.295,334.558 46.65,333.27 46.961,331.959 C45.845,302.873 42.254,217.406 91.344,165.755 C144.817,109.493 213.349,90.661 232.177,77.034 C177.802,51.273 117.657,75.494 99.807,91.04 C78.772,109.82 31.43,161.433 43.208,157.361 C64.945,146.278 104.681,147.677 104.952,149.474 C95.962,153.011 35.149,169.759 27.165,183.013 C19.182,196.265 0.141,248.022 2.438,258.69 C4.737,269.358 43.477,232.136 47.479,235.688 C37.24,252.062 1.841,275.805 0.71,283.735 C-6.317,332.989 41.69,413.872 17.175,443.045 C37.486,434.288 44.156,400.028 46.272,372.065 C45.437,374.107 44.397,376.06 43.186,377.882" fill="#0B0B09"/>
  </g>
</svg>
